<svg xmlns="http://www.w3.org/2000/svg" width="125.274" height="73.719" viewBox="0 0 125.274 73.719">
  <g id="logo" transform="translate(0)">
    <path id="Tracé_185" data-name="Tracé 185" d="M-308.211,981.484c0,1.915.008,3.829,0,5.744a2.845,2.845,0,0,1-1.538,2.515c-.356.215-.581.272-.58-.294q.016-8.01,0-16.021c0-.444.13-.546.524-.32a2.845,2.845,0,0,1,1.591,2.559C-308.2,977.6-308.211,979.545-308.211,981.484Z" transform="translate(433.482 -940.46)" fill="#fff"/>
    <path id="Tracé_186" data-name="Tracé 186" d="M-327.782,998.742a10.164,10.164,0,0,1,.017-1.393.977.977,0,0,1,.375-.625,5.631,5.631,0,0,0,2.82-5.1c.122-7.167.308-14.333.47-21.5q.128-5.639.256-11.278a4.808,4.808,0,0,0-.892-2.995,2.372,2.372,0,0,1-.477-1.607c.035-.7.008-1.412.008-2.108,3.1-.918,6.662,1.459,6.764,4.625.093,2.873-.043,5.753-.078,8.63-.033,2.7-.058,5.4-.1,8.105-.1,6.639-.184,13.278-.311,19.916a5.261,5.261,0,0,1-5.5,5.326C-325.509,998.745-326.59,998.742-327.782,998.742Z" transform="translate(439.939 -932.677)" fill="#ff006b"/>
    <g id="Groupe_218" data-name="Groupe 218" transform="translate(6.008 19.94)">
      <path id="Tracé_187" data-name="Tracé 187" d="M-477.3,957.272c0,2.448-1.708,4.085-4.419,4.085h-2.765v4.4h-2.553V953.433h5.495C-478.933,953.433-477.3,954.965-477.3,957.272Zm-2.553.124a1.622,1.622,0,0,0-1.814-1.673h-2.818v3.345h2.818A1.622,1.622,0,0,0-479.848,957.4Z" transform="translate(487.033 -953.169)" fill="#ff006b"/>
      <path id="Tracé_188" data-name="Tracé 188" d="M-459.137,965.759h-2.571l-.51-2.571a2.2,2.2,0,0,0-2.571-2.043h-1.585v4.614h-2.553V953.433h5.424c2.5,0,4.155,1.444,4.155,3.628a3.369,3.369,0,0,1-2.271,3.275,2.4,2.4,0,0,1,1.779,2.078Zm-4.437-6.832a1.583,1.583,0,0,0,1.673-1.6,1.583,1.583,0,0,0-1.673-1.6h-2.8v3.2Z" transform="translate(480.338 -953.169)" fill="#ff006b"/>
      <path id="Tracé_189" data-name="Tracé 189" d="M-451.156,959.407a6.085,6.085,0,0,1,6.286-6.393,6.084,6.084,0,0,1,6.286,6.393,6.079,6.079,0,0,1-6.286,6.374A6.079,6.079,0,0,1-451.156,959.407Zm10.019,0c0-2.431-1.462-4.1-3.733-4.1s-3.733,1.672-3.733,4.1c0,2.412,1.462,4.085,3.733,4.085S-441.137,961.819-441.137,959.407Z" transform="translate(473.768 -953.014)" fill="#ff006b"/>
    </g>
    <g id="Groupe_219" data-name="Groupe 219" transform="translate(0 35.125)">
      <path id="Tracé_190" data-name="Tracé 190" d="M-485.426,991.445h-7.194l-1.241,3.395h-3.85l6.788-17.732h3.825l6.814,17.732h-3.927Zm-1.089-3.04-2.457-6.941-2.533,6.941Z" transform="translate(497.711 -977.108)" fill="#fff"/>
      <path id="Tracé_191" data-name="Tracé 191" d="M-455,977.108l-6.383,17.732h-3.9l-6.662-17.732h4.027l4.585,13.375,4.433-13.375Z" transform="translate(488.184 -977.108)" fill="#fff"/>
      <path id="Tracé_193" data-name="Tracé 193" d="M-426.762,977.108h3.673v17.732h-3.673Z" transform="translate(475.328 -977.108)" fill="#fff"/>
      <path id="Tracé_194" data-name="Tracé 194" d="M-401.3,982.63c0,3.521-2.457,5.877-6.358,5.877h-3.977v6.333h-3.673V977.108h7.9C-403.654,977.108-401.3,979.311-401.3,982.63Zm-3.673.177a2.333,2.333,0,0,0-2.609-2.406h-4.053v4.813h4.053A2.333,2.333,0,0,0-404.972,982.807Z" transform="translate(471.092 -977.108)" fill="#fff"/>
      <path id="Tracé_195" data-name="Tracé 195" d="M-376.042,980.4h-5.876v14.438h-3.674V980.4h-5.876v-3.293h15.427Z" transform="translate(462.279 -977.108)" fill="#fff"/>
      <path id="Tracé_196" data-name="Tracé 196" d="M-348.837,977.108l-6.383,17.732h-3.9l-6.662-17.732h4.027l4.585,13.375,4.433-13.375Z" transform="translate(452.781 -977.108)" fill="#fff"/>
    </g>
    <path id="Tracé_326" data-name="Tracé 326" d="M-620.184,898.7s17.3-6.179,41.507,33.631C-578.677,932.328-599.924,877.121-620.184,898.7Z" transform="translate(686.312 -893.695)" fill="#fff"/>
    <path id="Tracé_327" data-name="Tracé 327" d="M-670.589,978.825s-14.587-8.1,11.244-56.322C-659.345,922.5-697.99,971.076-670.589,978.825Z" transform="translate(714.665 -907.776)" fill="#fff"/>
    <path id="Tracé_328" data-name="Tracé 328" d="M-637.027,1021.746s63.362,10.94,56.2-18.892c0,0,2.355,17.98-55.79,18.892" transform="translate(689.076 -949.986)" fill="#fff"/>
  </g>
</svg>
